<?xml version="1.0" standalone="no"?>
<!DOCTYPE svg PUBLIC "-//W3C//DTD SVG 20010904//EN"
 "http://www.w3.org/TR/2001/REC-SVG-20010904/DTD/svg10.dtd">
<svg version="1.0" xmlns="http://www.w3.org/2000/svg"
 width="257.000000pt" height="257.000000pt" viewBox="0 0 257.000000 257.000000"
 preserveAspectRatio="xMidYMid meet">
<metadata>
Created by potrace 1.14, written by Peter Selinger 2001-2017
</metadata>
<g transform="translate(0.000000,257.000000) scale(0.100000,-0.100000)"
fill="#000000" stroke="none">
<path d="M17 1783 c-4 -3 -7 -122 -7 -264 0 -203 3 -257 13 -254 9 4 12 65 12
260 -1 140 -3 257 -6 260 -3 3 -9 2 -12 -2z"/>
<path d="M755 1432 c-11 -2 -26 -9 -32 -14 -18 -15 -16 -63 3 -82 17 -18 61
-21 84 -6 11 7 5 8 -20 4 -50 -7 -65 7 -61 59 1 22 40 38 64 25 10 -5 17 -5
17 0 0 12 -29 19 -55 14z"/>
<path d="M908 1429 c-9 -6 -5 -9 13 -9 24 0 26 -3 24 -39 -1 -22 2 -45 6 -53
5 -8 9 7 9 40 0 50 1 52 27 52 38 0 25 7 -24 13 -23 2 -47 0 -55 -4z"/>
<path d="M1127 1426 c-6 -16 -1 -95 6 -103 4 -3 8 0 8 8 1 8 2 21 3 29 1 10
10 14 26 13 22 -2 23 -2 5 6 -11 5 -23 7 -27 4 -5 -2 -8 5 -8 16 0 17 6 21 32
21 39 0 33 9 -10 14 -17 2 -33 -2 -35 -8z"/>
<path d="M1268 1432 c-27 -3 -28 -6 -28 -58 0 -30 5 -54 10 -54 6 0 10 22 10
49 0 47 2 50 28 53 15 2 23 5 17 8 -5 3 -22 4 -37 2z"/>
<path d="M1967 1419 c-31 -23 -34 -45 -11 -77 19 -28 67 -29 94 -2 25 25 25
42 3 68 -28 31 -56 35 -86 11z m78 -29 c10 -31 -12 -62 -42 -58 -33 4 -48 27
-39 61 10 42 67 41 81 -3z"/>
<path d="M507 1423 c-6 -13 -2 -91 6 -99 7 -7 11 9 8 34 -2 11 19 17 42 13 5
-1 6 3 3 8 -3 5 -16 7 -28 3 -18 -4 -20 -2 -16 16 6 21 -6 40 -15 25z"/>
<path d="M588 1423 c-4 -7 -3 -51 1 -90 0 -7 4 -13 9 -13 4 0 7 25 7 55 0 49
-7 69 -17 48z"/>
<path d="M1050 1375 c0 -30 4 -55 9 -55 4 0 8 25 8 55 -1 30 -4 55 -9 55 -4 0
-8 -25 -8 -55z"/>
<path d="M1381 1413 c-21 -41 -41 -98 -27 -80 17 22 62 22 75 0 5 -10 12 -15
15 -12 6 5 -40 109 -48 109 -3 0 -9 -8 -15 -17z m23 -29 c9 -23 8 -24 -14 -24
-11 0 -20 2 -20 4 0 12 13 36 20 36 4 0 11 -7 14 -16z"/>
<path d="M1492 1373 c1 -53 2 -54 5 -14 l4 44 45 -44 44 -43 -2 59 c-1 50 -2
53 -5 17 l-4 -42 -40 40 c-22 22 -42 40 -44 40 -3 0 -4 -26 -3 -57z"/>
<path d="M1649 1394 c12 -21 21 -47 21 -57 0 -10 5 -15 10 -12 6 4 8 11 4 16
-3 5 4 26 16 46 24 42 21 56 -5 17 l-17 -26 -11 23 c-7 12 -18 24 -25 27 -9 3
-6 -9 7 -34z"/>
<path d="M1838 1375 l4 -55 36 1 c28 1 31 3 12 6 -32 6 -36 14 -35 63 1 22 -4
40 -9 40 -7 0 -10 -21 -8 -55z"/>
<path d="M1270 1382 c0 -5 7 -9 15 -9 8 0 12 4 9 9 -3 4 -9 8 -15 8 -5 0 -9
-4 -9 -8z"/>
<path d="M655 1330 c-3 -5 -1 -10 4 -10 6 0 11 5 11 10 0 6 -2 10 -4 10 -3 0
-8 -4 -11 -10z"/>
<path d="M855 1330 c-3 -5 -1 -10 4 -10 6 0 11 5 11 10 0 6 -2 10 -4 10 -3 0
-8 -4 -11 -10z"/>
<path d="M2526 1318 c-3 -7 -4 -125 -3 -262 2 -189 5 -250 15 -254 16 -5 18
513 2 523 -6 3 -12 0 -14 -7z"/>
<path d="M1122 1206 c0 -19 -3 -40 -8 -47 -4 -7 -3 -10 4 -5 5 3 12 3 15 -1 2
-5 2 -2 1 5 -2 6 2 12 8 12 7 0 7 4 -1 13 -6 8 -8 17 -4 20 14 15 22 5 20 -25
-1 -19 3 -33 12 -36 9 -3 11 0 6 8 -6 9 -3 10 12 2 15 -9 19 -7 19 9 0 10 -5
19 -11 19 -5 0 -3 5 5 10 9 6 11 10 3 10 -7 0 -10 6 -7 14 3 8 0 17 -7 22 -7
4 -15 2 -17 -4 -2 -7 -8 -12 -13 -12 -6 0 -7 6 -3 13 5 7 0 6 -11 -3 -11 -9
-16 -10 -11 -2 4 6 3 12 -2 12 -6 0 -10 -15 -10 -34z"/>
<path d="M1248 1229 c17 -22 24 -59 10 -56 -6 1 -12 -4 -13 -11 -2 -7 -1 -8 2
-2 3 7 13 6 29 -5 14 -9 30 -12 37 -8 18 12 17 43 -2 43 -14 0 -14 2 -1 10 12
8 8 10 -15 11 -30 2 -29 2 5 8 l35 7 -32 5 c-18 3 -33 1 -33 -4 0 -5 -8 -3
-17 4 -16 13 -17 12 -5 -2z m54 -58 c8 11 9 11 6 1 -4 -16 -22 -18 -24 -2 -2
7 -1 6 3 -1 4 -8 8 -7 15 2z"/>
<path d="M1404 1232 c-5 -4 -10 -27 -12 -52 -3 -44 5 -52 13 -12 2 12 8 30 14
39 9 16 10 15 8 -4 -1 -13 -5 -23 -10 -23 -5 0 -4 -6 2 -13 6 -8 8 -17 4 -20
-3 -4 -1 -7 5 -7 15 0 13 87 -3 93 -6 3 -16 2 -21 -1z"/>
<path d="M1350 1195 c0 -24 5 -35 15 -35 10 0 15 11 15 35 0 24 -5 35 -15 35
-10 0 -15 -11 -15 -35z"/>
<path d="M445 1080 c-4 -7 68 -10 209 -10 137 0 216 4 216 10 0 14 -417 14
-425 0z"/>
<path d="M1715 1080 c4 -6 82 -10 201 -10 123 0 194 4 194 10 0 6 -74 10 -201
10 -131 0 -198 -3 -194 -10z"/>
</g>
</svg>
